<svg width="101" height="58" viewBox="0 0 101 58" fill="none" xmlns="http://www.w3.org/2000/svg">
<path d="M16.8605 23.8535C16.046 34.3099 15.2315 45.5831 14.9057 48.769C14.4984 53.9972 14.5799 54.7324 15.8016 54.7324C16.6976 54.7324 17.1049 53.9972 17.1049 52.0366C17.1863 47.2986 20.1186 8.90422 20.5258 8.57746C20.6887 8.41408 24.517 18.6253 29.0783 31.2873C39.7484 61.2676 38.4452 60.9408 48.7895 37.0056C53.025 27.2028 57.7492 16.5831 59.2154 13.4789L61.9033 7.76056L61.7404 31.2873C61.496 53.1803 61.5774 54.7324 62.9621 54.7324C64.2654 54.7324 64.3468 53.0986 64.3468 31.1239C64.3468 18.1352 64.5912 6.94366 64.8355 6.20844C65.2428 5.14647 64.7541 4.9014 62.7992 4.9014C60.6815 4.9014 60.1113 5.39154 59.0524 7.92393C53.025 22.4648 39.5041 51.3831 39.0154 50.893C38.6895 50.5662 34.8613 40.0282 30.4629 27.5296C22.8065 5.63661 22.4807 4.9014 20.3629 4.9014H18.2452L16.8605 23.8535Z" fill="#E6E7E7"/>
<path d="M75.9944 15.9296C70.4557 21.9746 65.9758 27.6113 65.9758 28.4282C65.9758 29.2451 69.5597 33.9014 73.9581 38.8845C78.275 43.7859 83.1621 49.4225 84.7912 51.3831C86.8274 53.8338 88.1307 54.8141 89.3524 54.569C90.8186 54.4056 89.1895 52.2 79.4153 41.2535L67.6863 28.1831L71.5145 24.0986C73.6323 21.8113 78.3565 16.8282 82.1033 12.9887C85.7686 9.0676 88.7823 5.7183 88.7823 5.39154C88.7823 5.14647 88.1307 4.9014 87.3976 4.9014C86.5831 4.9014 81.4516 9.8845 75.9944 15.9296Z" fill="#E6E7E7"/>
</svg>
